<svg xmlns="http://www.w3.org/2000/svg" viewBox="263 421 745 461"><g transform="translate(0.0,1280.0) scale(0.1,-0.1)" fill="#FFFFFF"><path d="M6745 8183 c-26 -6 -215 -192 -366 -360 -65 -73 -179 -208 -252 -300 -139 -176 -161 -204 -256 -344 -33 -47 -71 -93 -85 -102 -14 -9 -39 -17 -55 -17 l-29 0 -31 25 -30 26 -61 119 -61 120 -36 35 c-20 19 -44 35 -53 35 l-18 0 -63 -82 c-114 -150 -341 -431 -455 -564 l-112 -131 -29 -6 c-15 -3 -81 -17 -146 -31 l-119 -25 -34 -26 c-73 -56 -377 -340 -524 -491 -163 -167 -310 -327 -310 -338 0 -3 11 -6 25 -6 57 0 144 64 234 173 l60 73 40 -4 39 -4 44 40 c24 22 63 50 88 62 l45 23 55 0 55 0 58 -21 c32 -12 94 -44 138 -72 44 -27 84 -50 89 -50 15 0 12 20 -10 65 l-20 41 -90 88 -90 89 0 17 c0 10 9 28 19 41 l19 24 54 -1 53 -1 69 -28 69 -28 14 19 c7 11 22 29 34 42 l21 22 33 0 34 0 58 -82 c70 -100 168 -205 247 -266 88 -68 207 -125 357 -172 74 -23 155 -53 180 -66 45 -22 109 -84 109 -105 0 -6 5 -7 10 -4 18 11 11 63 -16 120 l-26 55 -79 71 c-86 77 -213 221 -305 344 -67 89 -169 244 -186 280 -6 13 -8 35 -4 49 l6 25 34 7 c133 25 403 -136 523 -311 l34 -50 -6 40 c-23 139 -91 334 -186 533 -27 56 -49 114 -49 128 l0 25 15 5 c8 3 30 -4 49 -15 43 -27 164 -154 276 -290 371 -451 480 -571 518 -571 l17 0 17 48 17 47 36 24 35 23 53 -4 53 -4 69 -32 c132 -62 314 -200 519 -392 65 -61 120 -109 122 -107 2 2 -39 84 -91 183 -196 368 -299 580 -311 644 l-6 30 12 0 c7 0 40 -30 74 -66 74 -81 156 -145 234 -184 60 -30 219 -76 229 -67 3 3 -28 43 -69 89 -133 150 -241 298 -373 510 l-60 96 -62 47 c-68 51 -109 97 -142 163 l-22 42 -14 123 c-18 153 -18 188 -1 212 l14 19 25 -17 c14 -9 78 -89 142 -179 108 -150 208 -268 227 -268 13 0 9 114 -7 187 -17 81 -73 239 -109 311 -14 28 -47 75 -73 104 -63 71 -100 132 -108 178 l-6 37 15 37 c8 20 21 36 29 36 24 0 67 -40 121 -114 54 -74 165 -248 208 -326 160 -288 238 -390 298 -390 12 0 49 16 81 37 l59 36 38 -11 37 -11 48 -49 48 -48 4 -109 3 -108 23 -31 c79 -107 410 -466 431 -466 4 0 8 13 8 29 l0 28 -59 121 c-33 66 -71 138 -85 161 -14 22 -26 43 -26 46 0 9 84 6 141 -5 30 -6 72 -17 94 -26 l40 -15 72 -107 c94 -141 239 -336 329 -442 98 -117 219 -230 284 -267 57 -32 125 -55 134 -46 6 6 -166 262 -317 472 -139 195 -359 478 -462 597 l-20 23 -204 11 c-112 6 -208 13 -213 16 -5 3 -54 66 -109 140 -55 73 -114 144 -132 157 -18 14 -66 34 -107 47 -41 12 -96 33 -123 48 -61 33 -127 104 -166 178 -40 76 -179 290 -257 397 -84 113 -202 237 -241 254 -33 13 -43 14 -78 6z"/><path d="M3563 5604 c-73 -37 -85 -60 -213 -384 -44 -113 -85 -214 -90 -225 -55 -119 -231 -580 -228 -597 3 -22 7 -23 109 -26 77 -2 109 1 117 10 6 7 31 63 55 123 45 110 45 110 218 113 173 2 199 8 199 40 0 27 -51 146 -71 167 -16 16 -37 21 -113 25 -94 5 -94 5 -66 75 15 39 55 143 90 233 35 89 67 162 70 162 4 0 87 -201 185 -447 98 -247 184 -461 192 -476 14 -28 14 -28 121 -25 101 3 107 4 110 25 2 12 -58 174 -133 360 -76 186 -171 421 -212 523 -99 247 -117 280 -161 309 -48 32 -133 39 -179 15z M4569 5579 c-15 -29 -6 -862 11 -939 26 -122 83 -199 179 -244 44 -20 62 -21 341 -21 287 0 296 1 345 23 103 47 155 125 180 268 20 113 22 903 3 922 -8 8 -46 12 -105 12 -81 0 -94 -2 -103 -19 -6 -13 -10 -173 -10 -453 0 -392 -2 -436 -18 -468 -31 -63 -60 -70 -287 -69 -239 1 -261 6 -292 69 -23 44 -23 48 -23 473 0 276 -4 435 -10 448 -9 17 -22 19 -105 19 -86 0 -95 -2 -106 -21z M6185 5586 c-67 -16 -93 -31 -136 -77 -85 -89 -103 -176 -103 -514 -1 -291 8 -365 55 -462 34 -70 81 -114 148 -140 40 -15 93 -18 386 -21 314 -3 340 -2 352 14 17 23 17 164 1 187 -12 15 -45 17 -307 18 -327 1 -352 5 -387 62 -18 30 -19 52 -19 332 0 284 1 302 20 335 33 55 55 59 386 59 215 1 298 4 307 13 7 7 12 44 12 98 0 54 -5 91 -12 98 -17 17 -633 15 -703 -2z M7222 5588 c-7 -7 -12 -44 -12 -98 0 -54 5 -91 12 -98 9 -9 69 -12 210 -12 198 0 198 0 198 -477 0 -365 3 -484 13 -503 12 -23 18 -25 101 -28 55 -2 93 1 100 8 8 8 13 167 16 503 5 492 5 492 200 495 234 3 230 0 230 117 0 114 48 105 -546 105 -383 0 -513 -3 -522 -12z M8835 5586 c-69 -17 -106 -39 -145 -82 -75 -86 -100 -214 -100 -514 0 -328 24 -445 110 -531 79 -79 106 -84 445 -84 251 0 297 2 340 18 102 35 158 108 189 241 23 96 23 607 1 704 -29 125 -98 212 -193 243 -54 18 -580 22 -647 5z m555 -219 c21 -8 42 -25 55 -47 19 -33 20 -51 20 -335 0 -342 -2 -349 -75 -379 -33 -13 -78 -16 -248 -15 -226 1 -262 7 -296 53 -20 26 -21 43 -24 319 -4 309 1 348 42 386 12 10 30 21 41 24 45 11 451 6 485 -6z"/></g></svg>