<svg xmlns="http://www.w3.org/2000/svg" viewBox="263 421 745 461"><g transform="translate(0.0,1280.0) scale(0.1,-0.1)" fill="#FFFFFF"><path d="M6745 8183 c-26 -6 -215 -192 -366 -360 -65 -73 -179 -208 -252 -300 -139 -176 -161 -204 -256 -344 -33 -47 -71 -93 -85 -102 -14 -9 -39 -17 -55 -17 l-29 0 -31 25 -30 26 -61 119 -61 120 -36 35 c-20 19 -44 35 -53 35 l-18 0 -63 -82 c-114 -150 -341 -431 -455 -564 l-112 -131 -29 -6 c-15 -3 -81 -17 -146 -31 l-119 -25 -34 -26 c-73 -56 -377 -340 -524 -491 -163 -167 -310 -327 -310 -338 0 -3 11 -6 25 -6 57 0 144 64 234 173 l60 73 40 -4 39 -4 44 40 c24 22 63 50 88 62 l45 23 55 0 55 0 58 -21 c32 -12 94 -44 138 -72 44 -27 84 -50 89 -50 15 0 12 20 -10 65 l-20 41 -90 88 -90 89 0 17 c0 10 9 28 19 41 l19 24 54 -1 53 -1 69 -28 69 -28 14 19 c7 11 22 29 34 42 l21 22 33 0 34 0 58 -82 c70 -100 168 -205 247 -266 88 -68 207 -125 357 -172 74 -23 155 -53 180 -66 45 -22 109 -84 109 -105 0 -6 5 -7 10 -4 18 11 11 63 -16 120 l-26 55 -79 71 c-86 77 -213 221 -305 344 -67 89 -169 244 -186 280 -6 13 -8 35 -4 49 l6 25 34 7 c133 25 403 -136 523 -311 l34 -50 -6 40 c-23 139 -91 334 -186 533 -27 56 -49 114 -49 128 l0 25 15 5 c8 3 30 -4 49 -15 43 -27 164 -154 276 -290 371 -451 480 -571 518 -571 l17 0 17 48 17 47 36 24 35 23 53 -4 53 -4 69 -32 c132 -62 314 -200 519 -392 65 -61 120 -109 122 -107 2 2 -39 84 -91 183 -196 368 -299 580 -311 644 l-6 30 12 0 c7 0 40 -30 74 -66 74 -81 156 -145 234 -184 60 -30 219 -76 229 -67 3 3 -28 43 -69 89 -133 150 -241 298 -373 510 l-60 96 -62 47 c-68 51 -109 97 -142 163 l-22 42 -14 123 c-18 153 -18 188 -1 212 l14 19 25 -17 c14 -9 78 -89 142 -179 108 -150 208 -268 227 -268 13 0 9 114 -7 187 -17 81 -73 239 -109 311 -14 28 -47 75 -73 104 -63 71 -100 132 -108 178 l-6 37 15 37 c8 20 21 36 29 36 24 0 67 -40 121 -114 54 -74 165 -248 208 -326 160 -288 238 -390 298 -390 12 0 49 16 81 37 l59 36 38 -11 37 -11 48 -49 48 -48 4 -109 3 -108 23 -31 c79 -107 410 -466 431 -466 4 0 8 13 8 29 l0 28 -59 121 c-33 66 -71 138 -85 161 -14 22 -26 43 -26 46 0 9 84 6 141 -5 30 -6 72 -17 94 -26 l40 -15 72 -107 c94 -141 239 -336 329 -442 98 -117 219 -230 284 -267 57 -32 125 -55 134 -46 6 6 -166 262 -317 472 -139 195 -359 478 -462 597 l-20 23 -204 11 c-112 6 -208 13 -213 16 -5 3 -54 66 -109 140 -55 73 -114 144 -132 157 -18 14 -66 34 -107 47 -41 12 -96 33 -123 48 -61 33 -127 104 -166 178 -40 76 -179 290 -257 397 -84 113 -202 237 -241 254 -33 13 -43 14 -78 6z"/></g></svg>